<svg xmlns="http://www.w3.org/2000/svg" width="500.5" height="209" viewBox="0 0 500.5 209"><g transform="translate(-128.5 -396)"><path d="M8580,2240.9a21.891,21.891,0,0,1-11.8-3.05,19,19,0,0,1-7.45-9.2q-2.55-6.15-2.55-15.75,0-9.7,2.4-15.85a18.038,18.038,0,0,1,7.25-9.15,22.721,22.721,0,0,1,12.15-3,26.668,26.668,0,0,1,13.45,3.45,25.318,25.318,0,0,1,9.6,9.7,32.941,32.941,0,0,1,0,29.75,24.869,24.869,0,0,1-9.6,9.7A26.977,26.977,0,0,1,8580,2240.9Zm-34.1,18.5v-73.6H8564v9.2l-.1,17.9,1,18v28.5Zm30.1-33.6a11.126,11.126,0,0,0,5.75-1.5,10.926,10.926,0,0,0,4.1-4.4,16.574,16.574,0,0,0,0-14,10.925,10.925,0,0,0-4.1-4.4,11.771,11.771,0,0,0-11.5,0,10.925,10.925,0,0,0-4.1,4.4,16.574,16.574,0,0,0,0,14,10.926,10.926,0,0,0,4.1,4.4A11.126,11.126,0,0,0,8576,2225.8Zm68.6,15.1a33.662,33.662,0,0,1-15.8-3.6,27.452,27.452,0,0,1-10.85-9.95,27.273,27.273,0,0,1,10.85-38.9,37.047,37.047,0,0,1,31.65,0,26.342,26.342,0,0,1,14.75,24.35,26.634,26.634,0,0,1-14.75,24.5A33.964,33.964,0,0,1,8644.6,2240.9Zm0-15.1a11.322,11.322,0,0,0,5.851-1.5,10.538,10.538,0,0,0,4.05-4.45,15.389,15.389,0,0,0,1.5-7.05,14.769,14.769,0,0,0-1.5-6.95,10.664,10.664,0,0,0-4.05-4.35,11.322,11.322,0,0,0-5.851-1.5,11.128,11.128,0,0,0-5.75,1.5,11.007,11.007,0,0,0-4.1,4.35,14.375,14.375,0,0,0-1.55,6.95,14.975,14.975,0,0,0,1.55,7.05,10.864,10.864,0,0,0,4.1,4.45A11.128,11.128,0,0,0,8644.6,2225.8ZM8686,2240v-54.2h18.1v15.8l-2.7-4.5a17.486,17.486,0,0,1,7.8-9.15,26.257,26.257,0,0,1,13.1-3.05V2202q-1.3-.2-2.25-.25t-2.05-.05a13.758,13.758,0,0,0-9.4,3.15q-3.6,3.15-3.6,10.25V2240Zm72,.9q-10.4,0-16.2-5.15t-5.8-15.55v-46.5h19V2220a6.262,6.262,0,0,0,1.6,4.55,5.465,5.465,0,0,0,4.1,1.65,9.773,9.773,0,0,0,5.8-1.7l4.7,13.3a16.952,16.952,0,0,1-5.9,2.35A34.752,34.752,0,0,1,8758,2240.9Zm-29.9-41v-14.1h39.3v14.1Zm54.6,40.1v-53.6q0-9.8,5.85-15.65t16.75-5.85a34.118,34.118,0,0,1,6.9.7,17.852,17.852,0,0,1,5.7,2.1l-4.7,13.4a12.416,12.416,0,0,0-2.7-1.15,10.392,10.392,0,0,0-3-.45,6.083,6.083,0,0,0-4.65,1.75q-1.649,1.75-1.649,5.35v3.9l.5,7.9V2240Zm-7.9-38v-14.2h39.3V2202Zm74.9,38.9a33.656,33.656,0,0,1-15.8-3.6,27.454,27.454,0,0,1-10.851-9.95,27.272,27.272,0,0,1,10.851-38.9,37.045,37.045,0,0,1,31.649,0,26.338,26.338,0,0,1,14.75,24.35,26.629,26.629,0,0,1-14.75,24.5A33.957,33.957,0,0,1,8849.7,2240.9Zm0-15.1a11.319,11.319,0,0,0,5.85-1.5,10.538,10.538,0,0,0,4.05-4.45,15.389,15.389,0,0,0,1.5-7.05,14.769,14.769,0,0,0-1.5-6.95,10.664,10.664,0,0,0-4.05-4.35,11.319,11.319,0,0,0-5.85-1.5,11.126,11.126,0,0,0-5.75,1.5,11.01,11.01,0,0,0-4.1,4.35,14.375,14.375,0,0,0-1.55,6.95,14.975,14.975,0,0,0,1.55,7.05,10.866,10.866,0,0,0,4.1,4.45A11.126,11.126,0,0,0,8849.7,2225.8Zm41.4,14.2v-74.2h19V2240Zm33.3,0v-54.2h19V2240Zm9.5-60.2a12.029,12.029,0,0,1-8.4-2.9,9.7,9.7,0,0,1,0-14.4,12.029,12.029,0,0,1,8.4-2.9,12.435,12.435,0,0,1,8.4,2.75,8.875,8.875,0,0,1,3.2,7.05,9.769,9.769,0,0,1-3.15,7.45A11.862,11.862,0,0,1,8933.9,2179.8Zm51,61.1a33.663,33.663,0,0,1-15.8-3.6,27.458,27.458,0,0,1-10.85-9.95,27.273,27.273,0,0,1,10.85-38.9,37.047,37.047,0,0,1,31.65,0,26.342,26.342,0,0,1,14.75,24.35,26.634,26.634,0,0,1-14.75,24.5A33.963,33.963,0,0,1,8984.9,2240.9Zm0-15.1a11.321,11.321,0,0,0,5.85-1.5,10.538,10.538,0,0,0,4.05-4.45,15.389,15.389,0,0,0,1.5-7.05,14.769,14.769,0,0,0-1.5-6.95,10.664,10.664,0,0,0-4.05-4.35,11.321,11.321,0,0,0-5.85-1.5,11.123,11.123,0,0,0-5.75,1.5,11,11,0,0,0-4.1,4.35,14.375,14.375,0,0,0-1.55,6.95,14.975,14.975,0,0,0,1.55,7.05,10.86,10.86,0,0,0,4.1,4.45A11.123,11.123,0,0,0,8984.9,2225.8Zm49.1,15.1a11.189,11.189,0,0,1-8.1-3.2,10.8,10.8,0,0,1-3.3-8.1,10.564,10.564,0,0,1,3.3-8.15,12.28,12.28,0,0,1,16.2,0,10.564,10.564,0,0,1,3.3,8.15,10.8,10.8,0,0,1-3.3,8.1A11.189,11.189,0,0,1,9034,2240.9Z" transform="translate(-8416.9 -1712.52)" fill="#333"/><path d="M8565.4,2259.9h-20v-74.6h19.1v4.632a16.768,16.768,0,0,1,3.087-2.458A23.307,23.307,0,0,1,8580,2184.4a27.284,27.284,0,0,1,13.7,3.516,25.926,25.926,0,0,1,9.786,9.887,33.435,33.435,0,0,1,0,30.242,25.473,25.473,0,0,1-9.79,9.89,27.594,27.594,0,0,1-13.7,3.464,22.483,22.483,0,0,1-12.064-3.125,17.6,17.6,0,0,1-2.535-1.918Zm-19-1h18v-23.527a21.471,21.471,0,0,1-4.112-6.531c-1.717-4.141-2.588-9.5-2.588-15.941,0-6.5.818-11.893,2.434-16.031a20.988,20.988,0,0,1,3.366-5.836V2186.3h-17.1Zm19-23.93a16.617,16.617,0,0,0,3.064,2.455A21.5,21.5,0,0,0,8580,2240.4a26.6,26.6,0,0,0,13.205-3.336,24.493,24.493,0,0,0,9.409-9.51,32.447,32.447,0,0,0,0-29.258,24.942,24.942,0,0,0-9.413-9.513,26.293,26.293,0,0,0-13.2-3.385,22.338,22.338,0,0,0-11.888,2.925,15.846,15.846,0,0,0-3.612,3.076v3.6l-.08,14.382a13.151,13.151,0,0,1,1.29-3.718,11.469,11.469,0,0,1,4.286-4.595,12.271,12.271,0,0,1,12.008,0,11.477,11.477,0,0,1,4.287,4.6,17.066,17.066,0,0,1,0,14.471,11.468,11.468,0,0,1-4.286,4.6,12.271,12.271,0,0,1-12.008,0,11.476,11.476,0,0,1-4.287-4.6,12.752,12.752,0,0,1-1.057-2.707l.748,13.471Zm-1.9-42.3a20.85,20.85,0,0,0-2.435,4.564c-1.569,4.022-2.365,9.294-2.365,15.668,0,6.3.845,11.54,2.512,15.558a21.153,21.153,0,0,0,3.188,5.4v-2.947l-1-18.017.1-17.9Zm12.5,7.832a10.683,10.683,0,0,0-5.5,1.431,10.478,10.478,0,0,0-3.912,4.2,16.083,16.083,0,0,0,0,13.529,10.491,10.491,0,0,0,3.913,4.205,11.271,11.271,0,0,0,10.992,0,10.483,10.483,0,0,0,3.912-4.2,16.083,16.083,0,0,0,0-13.529,10.492,10.492,0,0,0-3.913-4.2A10.683,10.683,0,0,0,8576,2200.5Zm458,40.9a11.719,11.719,0,0,1-8.447-3.341,11.333,11.333,0,0,1-3.453-8.459,11.092,11.092,0,0,1,3.461-8.517,12.78,12.78,0,0,1,16.879,0,11.092,11.092,0,0,1,3.461,8.517,11.333,11.333,0,0,1-3.453,8.459A11.719,11.719,0,0,1,9034,2241.4Zm0-22.5a11.052,11.052,0,0,0-7.76,2.917,10.128,10.128,0,0,0-3.141,7.783,10.369,10.369,0,0,0,3.148,7.741,11.352,11.352,0,0,0,15.5,0,10.369,10.369,0,0,0,3.148-7.741,10.13,10.13,0,0,0-3.14-7.783A11.056,11.056,0,0,0,9034,2218.9Zm-49.1,22.5a34.311,34.311,0,0,1-16.032-3.656,28.079,28.079,0,0,1-11.043-10.129,27.772,27.772,0,0,1,11.046-39.609,37.544,37.544,0,0,1,32.106,0A26.843,26.843,0,0,1,9016,2212.8a27.134,27.134,0,0,1-15.021,24.944A34.611,34.611,0,0,1,8984.9,2241.4Zm0-56a33.717,33.717,0,0,0-15.572,3.495,26.853,26.853,0,0,0-10.654,9.671,28.179,28.179,0,0,0,0,28.52,27.089,27.089,0,0,0,10.656,9.771,36.088,36.088,0,0,0,31.189,0,26.837,26.837,0,0,0,0-47.961A34.018,34.018,0,0,0,8984.9,2185.4Zm-135.2,56a34.3,34.3,0,0,1-16.031-3.656,28.078,28.078,0,0,1-11.044-10.129,27.771,27.771,0,0,1,11.047-39.609,37.542,37.542,0,0,1,32.105,0,26.839,26.839,0,0,1,15.022,24.8,27.131,27.131,0,0,1-15.02,24.944A34.612,34.612,0,0,1,8849.7,2241.4Zm0-56a33.71,33.71,0,0,0-15.571,3.495,26.846,26.846,0,0,0-10.655,9.671,28.18,28.18,0,0,0,0,28.521,27.08,27.08,0,0,0,10.657,9.771,36.086,36.086,0,0,0,31.188,0,26.837,26.837,0,0,0,0-47.961A34.012,34.012,0,0,0,8849.7,2185.4Zm-91.7,56a31.154,31.154,0,0,1-9.4-1.311,19.552,19.552,0,0,1-7.131-3.965,16.487,16.487,0,0,1-4.486-6.662,26.566,26.566,0,0,1-1.481-9.262v-19.8h-7.9v-15.1h7.9v-12.1h20v12.1h12.4v15.1h-12.4V2220a5.812,5.812,0,0,0,1.459,4.2,4.942,4.942,0,0,0,3.741,1.5,9.329,9.329,0,0,0,5.511-1.608l.54-.383.221.624L8771.8,2238l-.323.216a17.534,17.534,0,0,1-6.073,2.423A35.421,35.421,0,0,1,8758,2241.4Zm-21.5-41v19.8c0,6.751,1.895,11.858,5.632,15.176,3.755,3.333,9.094,5.024,15.868,5.024a34.406,34.406,0,0,0,7.2-.739,16.92,16.92,0,0,0,5.4-2.067l-4.355-12.326a10.525,10.525,0,0,1-5.541,1.432,5.97,5.97,0,0,1-4.459-1.8,6.768,6.768,0,0,1-1.741-4.9v-19.6Zm19-1h11.4v-13.1h-11.4Zm-19,0h18v-13.1h-18Zm-7.9,0h6.9v-13.1h-6.9Zm7.9-14.1h18v-11.1h-18Zm-91.9,56.1a34.31,34.31,0,0,1-16.031-3.656,28.07,28.07,0,0,1-11.043-10.129,27.772,27.772,0,0,1,11.046-39.609,37.544,37.544,0,0,1,32.106,0,26.843,26.843,0,0,1,15.022,24.8,27.135,27.135,0,0,1-15.02,24.944A34.616,34.616,0,0,1,8644.6,2241.4Zm0-56a33.715,33.715,0,0,0-15.571,3.495,26.842,26.842,0,0,0-10.654,9.671,28.179,28.179,0,0,0,0,28.52,27.079,27.079,0,0,0,10.656,9.771,36.088,36.088,0,0,0,31.189,0,26.837,26.837,0,0,0,0-47.961A34.022,34.022,0,0,0,8644.6,2185.4Zm299.3,55.1h-20v-55.2h20Zm-19-1h18v-53.2h-18Zm-14.3,1h-20v-75.2h20Zm-19-1h18v-73.2h-18Zm-89.4,1h-20v-38h-7.9v-15.2h7.9v-.9a25.645,25.645,0,0,1,1.494-8.988,19.524,19.524,0,0,1,4.5-7.016,19.123,19.123,0,0,1,7.3-4.506,29.8,29.8,0,0,1,9.8-1.49,34.778,34.778,0,0,1,7,.71,18.43,18.43,0,0,1,5.859,2.162l.346.21-.134.382-4.9,13.972-.523-.305a12,12,0,0,0-2.592-1.1,9.944,9.944,0,0,0-2.856-.429,5.56,5.56,0,0,0-4.286,1.593c-1,1.065-1.514,2.75-1.514,5.007v.7h12.9v15.2h-12.4Zm-19-1h18v-37h-18Zm19-38h11.4v-13.2h-11.9v2.184l.5,7.916Zm-19,0h18v-3.084l-.5-7.916v-2.2h-17.5Zm-7.9,0h6.9v-13.2h-6.9Zm7.9-14.2h17.5v-.7c0-2.521.6-4.436,1.785-5.693A6.59,6.59,0,0,1,8807.5,2179a10.939,10.939,0,0,1,3.144.471,13.477,13.477,0,0,1,2.28.908l4.368-12.456a17.984,17.984,0,0,0-5.192-1.833,33.788,33.788,0,0,0-6.8-.69c-7.095,0-12.611,1.919-16.4,5.7s-5.7,8.931-5.7,15.3Zm-77.7,53.2h-20v-55.2h19.1v5.653a17.764,17.764,0,0,1,4.354-3.438,26.864,26.864,0,0,1,13.346-3.115h.5v18.183l-.576-.089c-.845-.13-1.585-.212-2.2-.245s-1.3-.049-2.023-.049a13.338,13.338,0,0,0-9.071,3.026c-2.275,1.991-3.429,5.313-3.429,9.874Zm-19-1h18v-24.4a19.071,19.071,0,0,1,.929-6.278,10.124,10.124,0,0,1,2.842-4.348A14.3,14.3,0,0,1,8718,2201.2c.74,0,1.438.017,2.076.051.5.026,1.08.084,1.724.171V2185.4a25.575,25.575,0,0,0-12.354,2.982,16.647,16.647,0,0,0-4.847,4.1v10.918l-3.755-6.26.091-.229a19.636,19.636,0,0,1,2.664-4.774V2186.3h-17.1Zm15.457-42.444,1.643,2.739v-5.916A19.109,19.109,0,0,0,8701.957,2197.056ZM8984.9,2226.3a11.666,11.666,0,0,1-6-1.569,11.4,11.4,0,0,1-4.289-4.648A15.537,15.537,0,0,1,8973,2212.8a14.933,14.933,0,0,1,1.61-7.189,11.549,11.549,0,0,1,4.286-4.542,11.666,11.666,0,0,1,6-1.569,11.866,11.866,0,0,1,6.1,1.569,11.208,11.208,0,0,1,4.238,4.548,15.331,15.331,0,0,1,1.558,7.183,15.939,15.939,0,0,1-1.555,7.277,11.079,11.079,0,0,1-4.241,4.654A11.866,11.866,0,0,1,8984.9,2226.3Zm0-25.8a10.678,10.678,0,0,0-5.5,1.431,10.557,10.557,0,0,0-3.915,4.158A13.95,13.95,0,0,0,8974,2212.8a14.555,14.555,0,0,0,1.492,6.818,10.419,10.419,0,0,0,3.912,4.251,10.678,10.678,0,0,0,5.5,1.431,10.879,10.879,0,0,0,5.6-1.431,10.1,10.1,0,0,0,3.858-4.246,14.974,14.974,0,0,0,1.445-6.823,14.349,14.349,0,0,0-1.442-6.717,10.215,10.215,0,0,0-3.861-4.152A10.879,10.879,0,0,0,8984.9,2200.5Zm-135.2,25.8a11.671,11.671,0,0,1-6-1.569,11.4,11.4,0,0,1-4.289-4.648,15.535,15.535,0,0,1-1.607-7.283,14.933,14.933,0,0,1,1.61-7.189,11.287,11.287,0,0,1,10.29-6.111,11.866,11.866,0,0,1,6.1,1.569,11.208,11.208,0,0,1,4.238,4.548,15.331,15.331,0,0,1,1.558,7.183,15.939,15.939,0,0,1-1.555,7.277,11.079,11.079,0,0,1-4.241,4.654A11.866,11.866,0,0,1,8849.7,2226.3Zm0-25.8a10.683,10.683,0,0,0-5.5,1.431,10.567,10.567,0,0,0-3.915,4.158,13.948,13.948,0,0,0-1.489,6.711,14.555,14.555,0,0,0,1.492,6.818,10.421,10.421,0,0,0,3.912,4.251,10.683,10.683,0,0,0,5.5,1.431,10.879,10.879,0,0,0,5.6-1.431,10.1,10.1,0,0,0,3.858-4.246,14.974,14.974,0,0,0,1.445-6.823,14.349,14.349,0,0,0-1.442-6.717,10.215,10.215,0,0,0-3.861-4.152A10.879,10.879,0,0,0,8849.7,2200.5Zm-205.1,25.8a11.671,11.671,0,0,1-6-1.569,11.4,11.4,0,0,1-4.288-4.648,15.537,15.537,0,0,1-1.607-7.283,14.933,14.933,0,0,1,1.61-7.189,11.55,11.55,0,0,1,4.285-4.542,11.671,11.671,0,0,1,6-1.569,11.867,11.867,0,0,1,6.1,1.569,11.208,11.208,0,0,1,4.238,4.548,15.331,15.331,0,0,1,1.558,7.183,15.939,15.939,0,0,1-1.555,7.277,11.079,11.079,0,0,1-4.241,4.654A11.867,11.867,0,0,1,8644.6,2226.3Zm0-25.8a10.683,10.683,0,0,0-5.5,1.431,10.558,10.558,0,0,0-3.914,4.158,13.95,13.95,0,0,0-1.489,6.711,14.555,14.555,0,0,0,1.492,6.818,10.42,10.42,0,0,0,3.911,4.251,10.683,10.683,0,0,0,5.5,1.431,10.88,10.88,0,0,0,5.6-1.431,10.1,10.1,0,0,0,3.858-4.246,14.974,14.974,0,0,0,1.445-6.823,14.349,14.349,0,0,0-1.442-6.717,10.215,10.215,0,0,0-3.861-4.152A10.88,10.88,0,0,0,8644.6,2200.5Zm289.3-20.2a12.565,12.565,0,0,1-8.736-3.03,10.2,10.2,0,0,1,0-15.141,12.567,12.567,0,0,1,8.736-3.029,12.97,12.97,0,0,1,8.726,2.871A9.394,9.394,0,0,1,8946,2169.4a10.294,10.294,0,0,1-3.309,7.815A12.4,12.4,0,0,1,8933.9,2180.3Zm0-20.2a11.6,11.6,0,0,0-8.064,2.771,9.2,9.2,0,0,0,0,13.659,11.6,11.6,0,0,0,8.064,2.771,11.432,11.432,0,0,0,8.107-2.815A9.329,9.329,0,0,0,8945,2169.4a8.326,8.326,0,0,0-3.026-6.67A12,12,0,0,0,8933.9,2160.1Z" transform="translate(-8416.9 -1712.52)" fill="rgba(0,0,0,0)"/><g transform="translate(-1309 -381)"><text transform="translate(1577 976)" fill="#333" font-size="30" font-family="Montserrat-Bold, Montserrat" font-weight="700" letter-spacing="-0.04em"><tspan x="-108.345" y="0">Lee chang gyu</tspan></text><path d="M75.195,6.56a8.73,8.73,0,0,1-2.641-.413,6.015,6.015,0,0,1-2.19-1.182l-.291-.257L72.255.458l.482.429a3.539,3.539,0,0,0,1.092.657,3.4,3.4,0,0,0,1.216.237,2,2,0,0,0,1.264-.356A3.494,3.494,0,0,0,77.2.134L70.505-15.455V-2.7c0,3.133-.842,5.488-2.5,7S63.98,6.56,60.945,6.56a17.826,17.826,0,0,1-4.522-.571,10.077,10.077,0,0,1-3.707-1.756l-.334-.263L54.739-.288,55.2.094A7.183,7.183,0,0,0,57.63,1.338a9.866,9.866,0,0,0,2.955.472A4.564,4.564,0,0,0,63.849.844a3.712,3.712,0,0,0,.963-2.5,6.015,6.015,0,0,1-.75.478,8,8,0,0,1-3.837.9,8.984,8.984,0,0,1-4.3-1.035,8.161,8.161,0,0,1-3.1-2.906,8.1,8.1,0,0,1-1.171-4.36,8.156,8.156,0,0,1,1.171-4.39,8.046,8.046,0,0,1,3.1-2.892,9.091,9.091,0,0,1,4.3-1.018A8.114,8.114,0,0,1,64.059-16a5.892,5.892,0,0,1,1.006.672V-16.64H75.919l4.2,10.156L84.341-16.64H94.985v8.93a3.871,3.871,0,0,0,.726,2.62,2.594,2.594,0,0,0,2.044.78,3.423,3.423,0,0,0,1.678-.4,2.69,2.69,0,0,0,1.114-1.223,5.059,5.059,0,0,0,.429-2.224v-8.48h5.68V.5h-5.44V-.722a6.1,6.1,0,0,1-.836.546A7.611,7.611,0,0,1,96.705.74,8.5,8.5,0,0,1,92.9-.092a6.037,6.037,0,0,1-2.663-2.595,9.066,9.066,0,0,1-.93-4.333v-8.149L82.347,1.181a10.69,10.69,0,0,1-1.876,3.2,6.164,6.164,0,0,1-2.417,1.693A8.211,8.211,0,0,1,75.195,6.56ZM71.327,4.455a5.411,5.411,0,0,0,1.53.739,7.732,7.732,0,0,0,2.339.367,7.217,7.217,0,0,0,2.511-.419,5.179,5.179,0,0,0,2.023-1.427A9.724,9.724,0,0,0,81.421.8l0-.01L88.419-15.64h-3.41L80.657-5.178l1.1,2.652L77.79,1.512l-.045-.1h0l-.042-.1a3.507,3.507,0,0,1-.772.9,2.954,2.954,0,0,1-1.886.574,4.4,4.4,0,0,1-1.574-.3,4.647,4.647,0,0,1-.894-.457ZM53.675,3.7a9.456,9.456,0,0,0,3,1.323,16.824,16.824,0,0,0,4.268.539c2.778,0,4.926-.673,6.383-2S69.505.139,69.505-2.7V-15.64h-3.44v1.373A7.11,7.11,0,0,1,66.7-13.23a10.349,10.349,0,0,1,.924,4.65A10.272,10.272,0,0,1,66.7-3.96a6.98,6.98,0,0,1-.876,1.342V-2.1a4.934,4.934,0,0,1-1.274,3.656A5.483,5.483,0,0,1,60.585,2.81a10.864,10.864,0,0,1-3.255-.518,8.726,8.726,0,0,1-2.285-1.069ZM90.305-15.64v8.62a8.1,8.1,0,0,0,.81,3.857A5.056,5.056,0,0,0,93.342-.988a7.515,7.515,0,0,0,3.363.728,6.622,6.622,0,0,0,3.2-.794,4.987,4.987,0,0,0,1.314-1.024V-5.084a3.576,3.576,0,0,1-1.3,1.247,4.409,4.409,0,0,1-2.162.528,3.581,3.581,0,0,1-2.786-1.11,4.794,4.794,0,0,1-.984-3.29v-7.93ZM102.215-.5h3.44V-15.64h-3.68v7.48a6.247,6.247,0,0,1-.447,2.482l1.567,2.5-.12.249a6.517,6.517,0,0,1-.76,1.221ZM78.964-1.465,78.7-.843l1.876-1.911-.462-1.119-.789,1.9ZM71.514-15.64l6.226,14.5h0l.346-.816.359-.508,1.13-2.716L75.251-15.64Zm-11.289-.24a8.1,8.1,0,0,0-3.831.9,7.059,7.059,0,0,0-2.72,2.538,7.175,7.175,0,0,0-1.019,3.86,7.118,7.118,0,0,0,1.019,3.83A7.173,7.173,0,0,0,56.4-2.2a8,8,0,0,0,3.828.915,7.017,7.017,0,0,0,3.363-.78A5,5,0,0,0,64.825-3V-4.567l.087-1.175a4.225,4.225,0,0,1-1.339,1.071,5.225,5.225,0,0,1-2.419.551,5.225,5.225,0,0,1-2.419-.551,4.287,4.287,0,0,1-1.711-1.577A4.372,4.372,0,0,1,56.4-8.58a4.351,4.351,0,0,1,.631-2.351,4.323,4.323,0,0,1,1.709-1.559,5.225,5.225,0,0,1,2.419-.551,5.225,5.225,0,0,1,2.419.551A4.242,4.242,0,0,1,65.086-11.2l-.021-1.456v-1.26a4.927,4.927,0,0,0-1.474-1.193A7.129,7.129,0,0,0,60.225-15.88Zm5.6,11.369v.068a9.352,9.352,0,0,0,.8-4.137,10.331,10.331,0,0,0-.553-3.595l.053,3.61Zm-4.67-7.529a4.238,4.238,0,0,0-1.961.439,3.292,3.292,0,0,0-1.321,1.2A3.37,3.37,0,0,0,57.4-8.58a3.343,3.343,0,0,0,.481,1.808,3.257,3.257,0,0,0,1.319,1.213,4.238,4.238,0,0,0,1.961.439,4.238,4.238,0,0,0,1.961-.439,3.155,3.155,0,0,0,1.3-1.208,3.471,3.471,0,0,0,.469-1.813,3.451,3.451,0,0,0-.467-1.825,3.187,3.187,0,0,0-1.3-1.2A4.238,4.238,0,0,0,61.155-12.04Zm-27.3,18.6a17.826,17.826,0,0,1-4.522-.571,10.077,10.077,0,0,1-3.707-1.756l-.334-.263L27.649-.288l.464.382A7.183,7.183,0,0,0,30.54,1.338,9.866,9.866,0,0,0,33.5,1.81,4.564,4.564,0,0,0,36.759.844a3.712,3.712,0,0,0,.963-2.5,6.015,6.015,0,0,1-.75.478,8,8,0,0,1-3.837.9,8.984,8.984,0,0,1-4.3-1.035,8.161,8.161,0,0,1-3.1-2.906,8.1,8.1,0,0,1-1.171-4.36,8.156,8.156,0,0,1,1.171-4.39,8.046,8.046,0,0,1,3.1-2.892,9.091,9.091,0,0,1,4.3-1.018A8.114,8.114,0,0,1,36.969-16a5.892,5.892,0,0,1,1.006.672V-16.64h5.44V-2.7c0,3.133-.842,5.488-2.5,7S36.89,6.56,33.855,6.56ZM26.585,3.7a9.456,9.456,0,0,0,3,1.323,16.824,16.824,0,0,0,4.268.539c2.778,0,4.926-.673,6.383-2S42.415.139,42.415-2.7V-15.64h-3.44v1.373a7.11,7.11,0,0,1,.636,1.037,10.349,10.349,0,0,1,.924,4.65,10.272,10.272,0,0,1-.924,4.62,6.98,6.98,0,0,1-.876,1.342V-2.1a4.934,4.934,0,0,1-1.274,3.656A5.483,5.483,0,0,1,33.5,2.81a10.864,10.864,0,0,1-3.255-.518,8.726,8.726,0,0,1-2.285-1.069Zm6.55-19.579a8.1,8.1,0,0,0-3.831.9,7.059,7.059,0,0,0-2.72,2.538,7.175,7.175,0,0,0-1.019,3.86,7.118,7.118,0,0,0,1.019,3.83A7.173,7.173,0,0,0,29.307-2.2a8,8,0,0,0,3.828.915A7.017,7.017,0,0,0,36.5-2.06,5,5,0,0,0,37.735-3V-4.567l.087-1.175a4.225,4.225,0,0,1-1.339,1.071,5.225,5.225,0,0,1-2.419.551,5.225,5.225,0,0,1-2.419-.551,4.287,4.287,0,0,1-1.711-1.577,4.372,4.372,0,0,1-.629-2.332,4.351,4.351,0,0,1,.631-2.351,4.323,4.323,0,0,1,1.709-1.559,5.225,5.225,0,0,1,2.419-.551,5.225,5.225,0,0,1,2.419.551A4.242,4.242,0,0,1,38-11.2l-.021-1.456v-1.26A4.927,4.927,0,0,0,36.5-15.113,7.129,7.129,0,0,0,33.135-15.88Zm5.6,11.369v.068a9.352,9.352,0,0,0,.8-4.137,10.33,10.33,0,0,0-.553-3.595l.053,3.61Zm-4.67-7.529A4.238,4.238,0,0,0,32.1-11.6a3.292,3.292,0,0,0-1.321,1.2,3.37,3.37,0,0,0-.479,1.819,3.343,3.343,0,0,0,.481,1.808A3.257,3.257,0,0,0,32.1-5.559a4.238,4.238,0,0,0,1.961.439,4.238,4.238,0,0,0,1.961-.439,3.155,3.155,0,0,0,1.3-1.208A3.471,3.471,0,0,0,37.8-8.58a3.451,3.451,0,0,0-.467-1.825,3.187,3.187,0,0,0-1.3-1.2A4.238,4.238,0,0,0,34.065-12.04ZM-5.715.74A7.984,7.984,0,0,1-9.171.046a5.436,5.436,0,0,1-2.274-1.934,4.989,4.989,0,0,1-.8-2.762,5.017,5.017,0,0,1,.786-2.793A5.122,5.122,0,0,1-8.991-9.329,11.387,11.387,0,0,1-4.815-9.98h3.189a2.319,2.319,0,0,0-.722-1.472,3.593,3.593,0,0,0-2.467-.708,7.685,7.685,0,0,0-2.38.38,6.243,6.243,0,0,0-1.959,1.011l-.477.378-2.157-4.2.355-.25A10.663,10.663,0,0,1-8.1-16.352a14.8,14.8,0,0,1,3.912-.528,9.082,9.082,0,0,1,6.054,1.86c1.47,1.254,2.216,3.209,2.216,5.81V.5h-5.38V-.636a4.8,4.8,0,0,1-.683.495A7.2,7.2,0,0,1-5.715.74Zm.9-9.72a10.426,10.426,0,0,0-3.8.579,4.153,4.153,0,0,0-2,1.5,4.035,4.035,0,0,0-.624,2.247,3.952,3.952,0,0,0,.639,2.218A4.453,4.453,0,0,0-8.739-.856a7,7,0,0,0,3.024.6A6.237,6.237,0,0,0-2.492-1a3.63,3.63,0,0,0,1.2-1.149v-.9l-.22-.506a3.6,3.6,0,0,1-.674.517,4.53,4.53,0,0,1-2.356.626,3.67,3.67,0,0,1-2.234-.624A2.194,2.194,0,0,1-7.685-4.86,2.21,2.21,0,0,1-6.9-6.586,3.911,3.911,0,0,1-4.3-7.25h2.71V-8.98ZM-.295-.5h3.38V-9.21c0-2.3-.627-3.994-1.864-5.05a8.13,8.13,0,0,0-5.406-1.62,13.8,13.8,0,0,0-3.648.492A10.067,10.067,0,0,0-10.5-14.26L-9.284-11.9A7.665,7.665,0,0,1-7.5-12.73a8.683,8.683,0,0,1,2.69-.43,4.523,4.523,0,0,1,3.143.972A3.35,3.35,0,0,1-.62-9.98h.595v3.73h-.57v1.069l.747,2.24L.1-2.785a5.229,5.229,0,0,1-.4.912ZM-4.3-6.25a3,3,0,0,0-1.935.416,1.218,1.218,0,0,0-.445.974,1.184,1.184,0,0,0,.5,1.024,2.715,2.715,0,0,0,1.636.426A3.544,3.544,0,0,0-2.7-3.894,2.646,2.646,0,0,0-1.595-5.2V-6.25ZM-38.835.74A10.438,10.438,0,0,1-43.716-.382a8.528,8.528,0,0,1-3.39-3.137A8.59,8.59,0,0,1-48.335-8.07a8.568,8.568,0,0,1,1.229-4.567,8.564,8.564,0,0,1,3.389-3.121,10.438,10.438,0,0,1,4.881-1.122,9.428,9.428,0,0,1,4.685,1.129,7.014,7.014,0,0,1,3,3.274l.194.426-4.477,2.405-.239-.432a3.743,3.743,0,0,0-1.385-1.488,3.6,3.6,0,0,0-1.807-.474,3.855,3.855,0,0,0-1.915.476A3.389,3.389,0,0,0-42.1-10.226a4.373,4.373,0,0,0-.491,2.155A4.373,4.373,0,0,0-42.1-5.915,3.389,3.389,0,0,0-40.78-4.576a3.855,3.855,0,0,0,1.915.476,3.686,3.686,0,0,0,1.812-.462,3.6,3.6,0,0,0,1.378-1.495l.238-.443,4.482,2.445-.2.425a7.04,7.04,0,0,1-3,3.241A9.428,9.428,0,0,1-38.835.74Zm0-16.62a9.451,9.451,0,0,0-4.419,1.008,7.577,7.577,0,0,0-3,2.759A7.584,7.584,0,0,0-47.335-8.07a7.605,7.605,0,0,0,1.082,4.029,7.542,7.542,0,0,0,3,2.772A9.451,9.451,0,0,0-38.835-.26a8.445,8.445,0,0,0,4.195-1A6.054,6.054,0,0,0-32.27-3.633L-35.051-5.15a4.341,4.341,0,0,1-1.516,1.462,4.675,4.675,0,0,1-2.3.588,4.842,4.842,0,0,1-2.405-.6,4.421,4.421,0,0,1-1.706-1.721,5.351,5.351,0,0,1-.619-2.645,5.351,5.351,0,0,1,.619-2.644,4.421,4.421,0,0,1,1.706-1.721,4.842,4.842,0,0,1,2.405-.6,4.584,4.584,0,0,1,2.3.606,4.51,4.51,0,0,1,1.508,1.449l2.786-1.5a6.012,6.012,0,0,0-2.372-2.4A8.445,8.445,0,0,0-38.835-15.88ZM-63.645.74A10.931,10.931,0,0,1-68.72-.4a8.491,8.491,0,0,1-3.422-3.139A8.218,8.218,0,0,1-73.2-6.346l-.01.1h-11.98a3.576,3.576,0,0,0,.214.433,3.3,3.3,0,0,0,1.439,1.333,5.138,5.138,0,0,0,2.284.473,5.606,5.606,0,0,0,2.079-.354A5.045,5.045,0,0,0-77.552-5.43l.368-.354,3.142,3.407-.3.338A7.782,7.782,0,0,1-77.319.029,10.865,10.865,0,0,1-81.375.74,10.931,10.931,0,0,1-86.45-.4a8.491,8.491,0,0,1-3.422-3.139q-.047-.078-.093-.157V.5h-16.39v-22h5.86V-4.46h10.139a8.841,8.841,0,0,1-.729-3.61,8.733,8.733,0,0,1,1.2-4.562,8.5,8.5,0,0,1,3.264-3.122,9.583,9.583,0,0,1,4.65-1.126,9.555,9.555,0,0,1,4.508,1.063,8.051,8.051,0,0,1,3.212,3.068,8.4,8.4,0,0,1,1.044,2.971,8.289,8.289,0,0,1,1.052-2.854,8.5,8.5,0,0,1,3.264-3.122,9.583,9.583,0,0,1,4.65-1.126,9.555,9.555,0,0,1,4.508,1.063,8.051,8.051,0,0,1,3.212,3.068,9.178,9.178,0,0,1,1.18,4.74c0,.194-.011.415-.032.658s-.04.45-.061.651l-.045.45h-11.98a3.575,3.575,0,0,0,.214.433,3.3,3.3,0,0,0,1.439,1.333,5.138,5.138,0,0,0,2.284.473,5.606,5.606,0,0,0,2.079-.354A5.045,5.045,0,0,0-59.822-5.43l.368-.354,3.142,3.407-.3.338A7.781,7.781,0,0,1-59.589.029,10.865,10.865,0,0,1-63.645.74Zm-.6-16.62a8.6,8.6,0,0,0-4.17,1A7.518,7.518,0,0,0-71.3-12.118,7.749,7.749,0,0,0-72.355-8.07a7.608,7.608,0,0,0,1.067,4.015A7.506,7.506,0,0,0-68.26-1.284,9.946,9.946,0,0,0-63.645-.26,9.876,9.876,0,0,0-59.961-.9a6.907,6.907,0,0,0,2.292-1.475l-1.84-2a5.915,5.915,0,0,1-1.565.934,6.593,6.593,0,0,1-2.451.426,6.123,6.123,0,0,1-2.726-.577,4.326,4.326,0,0,1-1.861-1.727,4.635,4.635,0,0,1-.413-.937h-1.02V-9.98h.933a4.563,4.563,0,0,1,.417-1.1,4.176,4.176,0,0,1,1.616-1.666,4.686,4.686,0,0,1,2.364-.591,4.6,4.6,0,0,1,2.352.593,4.233,4.233,0,0,1,1.6,1.646,4.476,4.476,0,0,1,.426,1.12h3.307a7.252,7.252,0,0,0-.852-2.26A7.066,7.066,0,0,0-60.2-14.933,8.567,8.567,0,0,0-64.245-15.88Zm-17.73,0a8.6,8.6,0,0,0-4.17,1,7.518,7.518,0,0,0-2.886,2.758A7.749,7.749,0,0,0-90.085-8.07a7.608,7.608,0,0,0,1.067,4.015A7.506,7.506,0,0,0-85.99-1.284,9.946,9.946,0,0,0-81.375-.26,9.876,9.876,0,0,0-77.691-.9,6.907,6.907,0,0,0-75.4-2.374l-1.84-2a5.915,5.915,0,0,1-1.565.934,6.593,6.593,0,0,1-2.451.426,6.123,6.123,0,0,1-2.726-.577,4.326,4.326,0,0,1-1.861-1.727,4.635,4.635,0,0,1-.413-.937h-1.02V-9.98h.933a4.562,4.562,0,0,1,.417-1.1,4.176,4.176,0,0,1,1.616-1.666,4.686,4.686,0,0,1,2.364-.591,4.6,4.6,0,0,1,2.352.593A4.233,4.233,0,0,1-78-11.1a4.476,4.476,0,0,1,.426,1.12h3.307a7.252,7.252,0,0,0-.852-2.26,7.066,7.066,0,0,0-2.818-2.693A8.567,8.567,0,0,0-81.975-15.88ZM-105.355-.5h14.39V-3.46h-10.53V-20.5h-3.86Zm37.63-6.75H-56.39q.008-.093.017-.188c.019-.215.028-.407.028-.572A10.011,10.011,0,0,0-56.5-9.786l-4.2,1.889V-8.67q0-.157-.009-.31h-7.049c-.008.121-.012.244-.012.37v.72A4.939,4.939,0,0,0-67.725-7.25Zm-17.73,0H-74.12q.008-.093.017-.188c.019-.215.028-.407.028-.572a10.011,10.011,0,0,0-.151-1.776l-4.2,1.889V-8.67q0-.157-.009-.31h-7.049c-.008.121-.012.244-.012.37v.72A4.939,4.939,0,0,0-85.455-7.25Zm17.879-2.73h6.7a3.384,3.384,0,0,0-.268-.64,3.2,3.2,0,0,0-1.224-1.264,3.619,3.619,0,0,0-1.848-.457,3.7,3.7,0,0,0-1.866.459,3.148,3.148,0,0,0-1.234,1.274A3.46,3.46,0,0,0-67.576-9.98Zm-17.73,0h6.7a3.383,3.383,0,0,0-.268-.64A3.2,3.2,0,0,0-80.1-11.883a3.619,3.619,0,0,0-1.848-.457,3.7,3.7,0,0,0-1.866.459,3.148,3.148,0,0,0-1.234,1.274A3.46,3.46,0,0,0-85.306-9.98ZM23.615.5h-5.68V-8.52a3.706,3.706,0,0,0-.723-2.542,2.619,2.619,0,0,0-2.047-.768,3.749,3.749,0,0,0-1.762.408,2.715,2.715,0,0,0-1.168,1.212A4.9,4.9,0,0,0,11.8-7.98V.5H6.115V-16.64h5.47v1.278a6.775,6.775,0,0,1,.913-.588,8.2,8.2,0,0,1,3.927-.93,8.043,8.043,0,0,1,3.66.819,6.063,6.063,0,0,1,2.6,2.545,8.814,8.814,0,0,1,.932,4.277Zm-4.68-1h3.68V-9.24a7.845,7.845,0,0,0-.808-3.793,5.081,5.081,0,0,0-2.173-2.135,7.055,7.055,0,0,0-3.21-.711,7.218,7.218,0,0,0-3.453.811,5.591,5.591,0,0,0-1.387,1.043v2.949a3.646,3.646,0,0,1,1.352-1.23,4.737,4.737,0,0,1,2.228-.522,3.607,3.607,0,0,1,2.783,1.092,4.633,4.633,0,0,1,.987,3.218ZM7.115-.5H10.8V-7.98a6.124,6.124,0,0,1,.452-2.483L9.668-13l.137-.255a6.726,6.726,0,0,1,.781-1.153v-1.23H7.115Zm-20.34,1H-18.9V-8.52a3.706,3.706,0,0,0-.723-2.542,2.619,2.619,0,0,0-2.047-.768,3.749,3.749,0,0,0-1.762.408,2.715,2.715,0,0,0-1.168,1.212,4.9,4.9,0,0,0-.439,2.231V.5h-5.68V-22.76h5.68v7.243a6.845,6.845,0,0,1,.7-.434,8.2,8.2,0,0,1,3.927-.93,8.043,8.043,0,0,1,3.66.819,6.063,6.063,0,0,1,2.6,2.545,8.814,8.814,0,0,1,.932,4.277Zm-4.68-1h3.68V-9.24a7.845,7.845,0,0,0-.808-3.793,5.081,5.081,0,0,0-2.173-2.135,7.055,7.055,0,0,0-3.21-.711,7.218,7.218,0,0,0-3.453.811,5.654,5.654,0,0,0-1.177.837v2.868a3.606,3.606,0,0,1,1.142-.943,4.737,4.737,0,0,1,2.228-.522,3.607,3.607,0,0,1,2.783,1.092A4.633,4.633,0,0,1-17.9-8.52Zm-11.82,0h3.68V-7.98a5.865,5.865,0,0,1,.551-2.689l.038-.072-1.733-2.228.154-.287a6.651,6.651,0,0,1,.99-1.39V-21.76h-3.68Z" transform="translate(1577 976)" fill="rgba(0,0,0,0)"/><text transform="translate(1469 941)" fill="#777" font-size="24" font-family="Montserrat-Medium, Montserrat" font-weight="500"><tspan x="0" y="0">designer &amp; web publisher</tspan></text></g><rect width="19" height="60" transform="translate(129 545)" fill="#333"/><rect width="19" height="60" transform="translate(474.2 396)" fill="#333"/></g></svg>